<?xml version="1.0" encoding="utf-8"?>
<!-- Generator: Adobe Illustrator 21.0.2, SVG Export Plug-In . SVG Version: 6.00 Build 0)  -->
<svg version="1.1" id="Layer_1" xmlns="http://www.w3.org/2000/svg" xmlns:xlink="http://www.w3.org/1999/xlink" x="0px" y="0px"
	 viewBox="0 0 1329 747" style="enable-background:new 0 0 1329 747;" xml:space="preserve">
<style type="text/css">
	.st0{fill:#1B1464;stroke:#0058E2;stroke-miterlimit:10;}
	.st1{fill:#D4145A;}
	.st2{fill:#0E173D;}
	.st3{fill:#E56041;}
	.st4{fill:#0E183E;}
	.st5{fill:#243269;}
	.st6{fill:#164B9F;}
	.st7{fill:#3D95CF;}
	.st8{fill:#3B95D1;}
	.st9{fill:#3C97D1;}
	.st10{fill:#3C97D2;}
	.st11{fill:#3D99D3;}
	.st12{fill:#3D98D2;}
	.st13{fill:#3E99D2;}
	.st14{fill:#2C5CA5;}
	.st15{fill:#0E173E;}
	.st16{fill:#273A79;}
	.st17{fill:#2A5AA8;}
	.st18{fill:#0E4BA0;}
	.st19{fill:#174B9F;}
	.st20{fill:#3D97D1;}
	.st21{fill:#3D97D2;}
	.st22{fill:#3F9AD3;}
	.st23{fill:#3D99D2;}
	.st24{fill:#5CC5D9;}
	.st25{fill:#56C3D9;}
	.st26{fill:#58C5DA;}
	.st27{fill:#5BC5DA;}
	.st28{fill:#89D2DE;}
	.st29{fill:#59C2D8;}
	.st30{fill:#3D98D3;}
	.st31{fill:#57BFD7;}
	.st32{fill:#5AC2D8;}
	.st33{fill:#89D1DE;}
	.st34{fill:#57C4DA;}
	.st35{fill:#F3863F;}
	.st36{fill:#89D2DF;}
	.st37{fill:#59C3D9;}
	.st38{fill:#88D0DE;}
	.st39{fill:#3C99D3;}
	.st40{fill:#89D1DF;}
	.st41{fill:#8AD2DE;}
	.st42{fill:#88CFDD;}
</style>
<rect x="-36" y="-208" class="st0" width="1440" height="1157"/>
<polygon class="st1" points="513,589 91,326 -246,-80 685,-89 "/>
<path class="st2" d="M1335.2-223.3c0,141.3,0,282.4,0,423.7c-1.2,1.2-2.8,1.4-4.5,1.2c-10-0.9-20.1-0.5-30.1-0.9c-0.5,0-0.9,0-1.2,0
	c-1.2-0.2-2.5-0.8-3.7-0.8c-0.9,0-1.7,0-2.5-0.3c-13.4-4.2-27.2-6.3-41-8.2c-13.4-1.7-27.1-2.6-40.7-2.3c-3.1,0-6.2,0.8-9.3,0.3
	c-0.8,0-1.5-0.3-2.3-0.8c-6.5-6.8-11.7-14.7-17.8-21.8c-17-19.5-36-36.6-57.2-51.5c-18.4-12.8-38-23.5-58.7-32.2
	c-4.5-1.9-9.1-3.2-13.4-5.3c-1.2-0.8-2-1.9-2.6-2.9c-7.7-20.4-20.7-37.3-35.2-53.2c-6-6.6-12.2-13.1-18.7-19.6
	c-0.9-0.9-1.7-1.9-2.9-2.5c-0.6,1.2-0.3,2.6-0.3,3.9c0,17.5,0,34.9,0,52.2c0,2,0.3,4-1.1,5.7c-0.3,0.3-0.8,0.3-1.2,0.3
	c-0.5-0.2-0.8-0.5-1.1-0.8c-0.9-2.9-0.6-5.9-0.3-9c0.6-1.7,0.5-3.4,0.5-5.1c0-27.4,0.2-54.6-0.2-81.9c-0.2-8.7,0.9-17.3-0.2-25.8
	c-0.5-14.5,0.6-29.2,0.3-43.7c0-0.9,0-1.7,0.3-2.5c0.9-1.7,2.6-2.2,4.3-2.5c2.9-0.5,5.7-1.1,8.7-1.5c4.8-0.6,9.4-2,14.2-2.3
	c3.4-0.2,6.6-1.2,10-1.2c7.4-0.5,14.7-1.5,22.1-1.7c6,0,12.1-0.3,18.1,0c5.7,0.5,11.6,0.5,17.3,0.9c0.5,0.2,0.9,0.2,1.2,0.2
	c0.5,0,0.9,0,1.2,0c6.3,0.8,12.7,1.2,18.9,2.3c7,1.2,14.1,2.5,21,3.6c1.5,0.3,3.1,0.5,4.8,0.9c4.9,1.4,10,2.5,15,3.7
	c3.4,1.5,7,2,10.5,2.6c0.3,0.2,0.8,0.2,1.1,0.3c3.9,1.2,7.7,2.6,11.6,3.9c4.2,1.5,8.7,2.3,12.8,4.2c0.8,0.3,1.5,0.8,2.3,0.9
	c0.3,0.2,0.6,0.2,0.9,0.3c1.7,0.6,3.2,1.5,5.1,1.9c0.3,0.2,0.6,0.2,0.9,0.3c9.6,3.4,19.2,6.8,28.4,10.8c11.3,4.8,22.6,9.6,33.7,14.7
	c0.3,0.2,0.6,0.3,0.9,0.6c0.2,0.2,0.3,0.3,0.6,0.5c-0.2-0.2-0.3-0.3-0.5-0.3c-11.1-8.7-22.7-16.2-34.9-23.2
	c-11.7-6.8-23.7-13-35.9-18.7c-3.9-1.7-7.7-3.7-11.6-5.3c-0.6-0.3-1.4-0.6-2-0.9c-7-2.5-13.4-6-20.4-8c-5.6-2-11-4-16.5-5.9
	c-6.3-1.5-12.5-3.9-18.7-5.7c-3.6-1.1-7.1-1.7-10.7-2.5c-6-1.7-12.1-2.8-18.1-4.3c-8.8-1.2-17.6-3.4-26.4-4.3
	c-5.9-0.6-11.7-2.3-17.8-2.2c-4,0-7.9-0.9-11.9-0.9c-3.9,0.3-7.6-0.2-11.3-0.5c-7.4-0.6-14.8-1.1-22.4,0.3c-1.9,0.3-3.7,0.5-5.4-0.5
	c-2.3-1.7-2-4.2-2.2-6.5c0-1.4,0.3-2.6,0.3-4c0-0.5,0.2-0.8,0.3-1.1c4-4,8.8-6.8,13.4-10c0.3-0.2,0.6-0.3,0.8-0.6
	c0.3-0.2,0.5-0.5,0.8-0.6c0.5-0.3,1.1-0.8,1.5-1.1c0.5-0.3,0.8-0.6,1.2-0.9c2.8-2,5.9-3.6,8.7-5.6c4.5-2.9,9.1-5.4,13.4-8.5
	c0.3-0.2,0.6-0.3,0.8-0.5c0.3-0.2,0.6-0.3,0.9-0.5c0.3-0.2,0.6-0.3,0.8-0.5c0.6-0.3,1.1-0.6,1.7-0.9c4.3-2.3,8.3-4.9,12.7-7.1
	c4.3-1.9,8-4.8,12.5-6.3c0.3-0.2,0.6-0.3,0.8-0.5c0.5-0.3,0.9-0.5,1.2-0.8c4.3-2.2,8.7-4.2,13-6.2c0.3-0.2,0.6-0.3,0.9-0.5
	c1.9-0.3,3.4-1.4,5.1-2.3c4.3-2.2,9-3.6,13.3-5.6c0.3-0.2,0.6-0.2,0.9-0.3c0.5-0.2,0.9-0.2,1.4-0.5c0.3-0.2,0.6-0.3,0.9-0.5
	c0.6-0.3,1.2-0.6,1.9-0.9c5.4-2,11-3.7,16.4-5.7c3.9-1.7,8.2-2.5,12.2-3.6c0.3-0.2,0.6-0.3,1.1-0.3c0.8-0.2,1.4-0.5,2.2-0.6
	c4.3-1.2,8.8-2,13.3-2.9c1.1-0.3,2.3-0.5,3.4-0.8c1.4,0,2.8-0.3,4-0.8c6.3-0.9,12.7-1.9,19-2.9c6.2-0.9,12.4-1.7,18.5-2.3
	c8.2-0.9,16.2-1.5,24.4-1.5c5.1-0.5,10.2-0.5,15.5,0c6.5-0.3,13-0.5,19.5,0c1.1,0.2,2.2,0.2,3.2,0.5c1.9,0.6,3.7,0.5,5.7,0.2
	c7.6,0.5,15.1,1.4,22.6,2.5c11.7,1.9,23.3,3.7,34.9,6.8c5.1,1.1,10.2,2.6,15.3,3.9C1332.2-225.8,1334.2-225.3,1335.2-223.3z"/>
<path class="st3" d="M1345,763c-11.6,4.9-41.3,22.4-53,27c-27.8,11.7-61.1,15.3-90,24c-7,1.9-28-25.7-35-24
	c-11.1,2.5-14.6-12.9-26-11c-14.1,3.7-16.4-28.5-30.9-26.3c-1.5-0.2-3.2,0.6-4.8,0.2c-0.9-0.5-1.5-1.2-2.5-1.7c-4-2-4.5-3.2-2.6-7.3
	c5.3-10.5,7.1-21.8,8-33.2c0.3-4,0.6-7.9,2-11.6c1.5-4,2.8-4.8,7-4.3c8.8,0.8,17.6,2.9,26.3,4.5c15,2.6,30.1,4.5,45.3,3.9
	c10.4-0.5,20.6-2,30-7.3c5.7-3.2,10.5-7.4,13.8-13.1c6.3-10.8,7.4-22.3,4-34.3c-1.5-5.3-2.6-10.5-3.4-15.9
	c-0.6-3.9,0.2-7.3,2.2-10.7c2.6-4,5.9-7.6,8.7-11.6c4.9-7.1,4.5-12.1-1.7-18.1c-5.6-5.4-5.6-5.4,0.3-10.7c1.5-1.2,2.8-2.8,4.2-4.3
	c2.5-2.9,2.9-6.2,1.9-9.7c-0.8-2.3-1.5-4.8-2.6-7c-3.1-5.7-2.9-11.9-2.5-18.1c0.5-5.3,3.2-9.3,8.3-11.4c4.5-2,9.1-3.7,13.8-5.6
	c3.2-1.2,6.2-3.1,9-5.3c5.4-4.3,6.2-8.3,3.1-14.2c-5.7-10.8-12.5-21-19.5-31.1c-2.9-4.2-5.7-8.5-9.1-12.7c-1.5,1.5-1.7,3.2-2.2,4.9
	c-7.3,23-17.3,45-29.5,65.8c-17,28.9-38.3,54.3-63.5,76.4c-17.9,15.8-37.7,29.2-58.9,40.3c-22.1,11.6-45.1,20.7-69.4,26.6
	c-19,4.6-38.2,7.6-57.8,8.5c-19.8,1.1-39.4-0.2-59.2-2.5c-1.5-0.2-2.9-0.5-4.3-1.1c-0.9-0.5-1.5-1.2-2.5-1.4
	c-8.7-2.5-17.6-4.2-26.3-7c-2-0.6-4.3-1.1-5.9-2.9c-0.6-1.1-0.6-2.2-0.3-3.2c2-6.6,4.3-13.1,7.4-19.3c1.2-2.5,3.1-3.2,5.9-2.9
	c2.3,0.3,4.6,0.6,7,1.1c19.3,4,38.8,6.2,58.4,7.1c19.3,0.8,38.8,1.1,58.1-0.9c17.5-1.7,34.8-4.2,51.9-8c7.9-1.7,13-6.8,18.2-11.9
	c1.1-1.1,1.9-2.6,3.1-3.7c9.3-8.3,13.6-19.5,16.7-31.2c2.2-8.2,0.6-16.4-1.1-24.6c-1.7-8-4-15.8-5.1-24c-0.9-7.6,0-14.4,5.3-20.4
	c3.7-4.3,7.3-8.8,10.4-13.4c5.1-7.6,4.9-13.4-0.6-20.7c-1.9-2.5-4.2-4.5-6.5-6.5c-3.7-3.1-3.6-4.9,0.3-7.9
	c4.6-3.4,8.8-7.3,11.4-12.5c1.2-2.5,1.5-4.8,0.8-7.4c-1.7-6-4.2-11.6-6.3-17.5c-3.4-9.1-2.5-18.2,1.4-27.1c1.4-3.2,4.2-5.4,7.6-6.8
	c6-2.6,12.1-4.9,18.2-7.4c5.9-2.3,11.6-4.9,16.1-9.6c5.1-5.1,6.2-10.7,3.4-17.3c-2.2-5.1-5.1-9.9-8-14.7c-4-6.8-8.7-13.3-12.8-19.9
	c-0.9-1.7-2.8-3.6-0.3-5.6c1.7-0.8,3.4-0.6,5.1-0.6c27.4,0,54.6,0,81.9,0c1.7,0,3.4,0,5.1,0.6c2,0.9,2.6,2.8,3.2,4.6
	c4.5,14.7,9,29.5,11.7,44.8c0.9,5.6,0.6,11-1.9,16.2c-2.3,4.9-4.3,10-5.9,15.1c-1.2,4-1.2,8,0.8,11.9c4.6,9.3,10.7,17.8,16.4,26.4
	c0.2,0.2,0.5,0.3,0.6,0.3c0.8-0.5,0.8-1.4,0.9-2.3c4.5-17.3,7.4-34.8,9-52.6c0.8-9.9,1.7-19.6,1.4-29.5c-0.3-9.4-0.8-19-1.9-28.4
	c-0.3-2.2-0.6-4.5,0.5-6.5c4-2.6,7.9-0.6,11.7,0.3c1.2,0.3,2.5,1.1,3.9,1.4c1.4,0.5,2.8,0.3,3.7-0.9c1.1-1.4,0.6-2.8-0.2-4.2
	c-0.9-1.4-2.2-1.5-3.6-1.1c-1.4,0.5-2.6,1.4-4.2,1.7c-4,0.9-8,2.9-12.1,0.2c-1.7-4.3-2.3-8.8-1.4-13.3c5.3-3.7,9.6-8.5,13.9-13.3
	c3.1-3.4,7-5.3,11.4-4.9c16.7,1.1,33.5,0.5,50.4,0.8c1.7,0.5,3.2,0.6,4.3,1.9"/>
<path class="st4" d="M1335.2,765c0,29.4,0,58.9,0,88.3c-45,0-90,0-135.1,0c0-2.5,2.2-3.1,3.9-3.9c5.7-2.6,11-6,16.5-8.7
	c14.2-7.7,28.3-16.1,42-24.7c11.6-7.3,22.9-14.8,34.2-22.9c11.6-8.5,23-17.3,34.3-26.3C1332.2,765.8,1333.3,764.4,1335.2,765z"/>
<path class="st5" d="M1335.2,212.3c0,1.2,0,2.5,0,3.7c-1.4,1.4-3.1,1.4-4.8,1.4c-35.6,0-71.1,0-106.8,0c-0.9,0-2,0-2.9-0.3
	c-4.2-1.9-9.3-9.9-8.8-14.1c0.3-0.3,0.8-0.5,1.2-0.6c4-0.3,7.9-0.2,11.9-0.2c26.6,0,53.2,0,79.8,0c2.6,0,5.1-0.5,7.7-0.2
	c6.3,2.3,13,4.2,19,7.3C1333,210.1,1334.4,210.7,1335.2,212.3z"/>
<path class="st5" d="M1335.2,219.7c0,4.2,0,8.3,0,12.7c-1.2,1.2-2.9,1.1-4.5,1.1c-33.1,0-66.3,0-99.4,0c-1.2,0-2.5,0-3.7-0.5
	c-3.4-2.8-4.8-6.8-6.3-10.7c-0.8-2,0.3-3.4,2.5-3.6c1.2-0.2,2.5-0.2,3.7-0.2c34,0,68,0,102,0
	C1331.5,218.6,1333.5,218.1,1335.2,219.7z"/>
<path class="st5" d="M1335.2,236.7c0,4,0,7.9,0,11.9c-1.4,1.5-3.2,1.5-5.3,1.5c-30,0-59.8,0-89.8,0c-1.5,0-2.9-0.3-4.3-0.6
	c-4.2-2.9-4.9-7.9-6.5-12.2c-0.3-0.8,0.3-1.7,1.1-2.2c1.5-0.8,3.4-0.6,5.1-0.6c24.9,0,49.6-0.2,74.5,0.2c7,0,14.1,0.6,21,0.6
	C1332.7,235.3,1334.1,235.6,1335.2,236.7z"/>
<path class="st5" d="M1335.2,285.7c0,4.2,0,8.3,0,12.7c-1.7,1.7-3.9,1.4-5.9,1.4c-15.1-0.2-30.3,0.8-45.4-0.8
	c-8.3-0.9-13.9,2.5-18.4,9c-2,2.9-4.5,5.6-7.9,7.1c-0.6,0.3-1.4,0.3-2,0.2c-0.5-0.2-0.8-0.5-1.1-0.8c-2.8-5.9-3.2-12.4-4.8-18.5
	c-0.6-2.3-1.4-4.8-1.5-7.3c-0.3-2.5,0.6-3.9,3.2-3.9c0.9,0,1.7,0,2.6,0c25.5,0,50.9,0,76.4,0
	C1331.8,284.6,1333.6,284.1,1335.2,285.7z"/>
<path class="st6" d="M1335.2,285.7c-28.8,0-57.5,0-86.7,0c2.3,9.9,4.5,19.3,6.6,28.8c-0.3,0.9-1.1,1.5-2,1.9
	c-12.2,0.3-24.3,0-36.3-0.8c-0.5-0.2-0.9-0.3-1.2-0.6c-1.7-2-2.3-4.6-2.9-7.1c-0.9-3.2-2.8-4.5-6.2-4.5c-12.1,0.2-24.1,0-36.2,0
	c-1.7,0-3.6,0.2-5.1-0.6c-0.8-0.3-1.7-0.8-0.9-1.9c0.9-0.9,2.2-1.1,3.4-1.1c13.9,0,27.8-0.2,41.6,0c0.5,0,0.9,0.2,1.4,0.2
	c4.8-0.2,9.6-0.2,14.4-0.2c5.1,0,10,0,14.8,2.3c2.9,1.4,4.6-0.2,4.2-3.1c-0.3-2-1.5-3.1-3.4-2.2c-9.9,4.6-20.4,2-30.6,2.6
	c-13.6,0.5-27.2,0.2-40.8,0.2c-1.2,0-2.5-0.2-3.6-1.1c-0.9-2,0.9-2,1.9-2.3c1.4-0.5,2.9-0.3,4.5-0.3c10.5,0,21,0,31.5,0
	c3.9,0,4.2-0.6,2.8-4.2c-1.9-4.6-2-4.8-7.1-4.8c-12.2,0-24.4,0-36.6,0c-1.5,0-2.9,0.2-4.5-0.3c-1.1-0.3-2.8-0.3-2-2.2
	c1.1-0.9,2.5-1.1,3.9-1.1c14.7,0.2,29.5-0.3,44.2,0.2c14.8-0.5,29.7-0.3,44.5-0.2c12.7-0.3,25.4-0.2,38-0.2c14.2,0,28.6,0,42.8,0
	c2,0,4.2-0.2,5.9,1.5C1335.2,285.2,1335.2,285.4,1335.2,285.7z"/>
<path class="st5" d="M1335.2,252.3c0,4.2,0,8.3,0,12.7c-1.4,1.5-3.2,1.5-5.1,1.5c-27.8,0-55.6,0-83.6,0c-1.4,0-2.6-0.2-4-0.6
	c-4.2-2.8-6.8-11-4.6-14.2c1.5-0.9,3.4-0.8,5.1-0.8c28.8,0,57.7,0,86.4,0C1331.3,250.7,1333.5,250.6,1335.2,252.3z"/>
<path class="st5" d="M1335.2,268.7c0,4.2,0,8.3,0,12.7c-1.4,1.4-3.1,1.5-4.8,1.5c-26.3,0-52.6,0-78.8,0c-1.4,0-2.6-0.2-4-0.6
	c-3.6-2.8-5.9-10.8-3.9-14.2c1.4-0.8,3.1-0.8,4.6-0.8c27.1,0,54.3,0,81.3,0C1331.6,267.1,1333.6,267,1335.2,268.7z"/>
<path class="st6" d="M1335.2,219.7c-36.3,0-72.8,0-109.1,0c-4.8,0-4.9,0.2-2.5,4.3c1.5,2.6,2.6,5.6,4.2,8.2
	c-0.8,1.2-2.2,1.2-3.4,1.2c-20.6,0-41,0.2-61.5-0.2c-4.9-1.9-7.9-6.2-11.7-9.3c-2.3-1.9-4.6-2.9-7.6-2.9c-14.5,0.2-29.1,0.2-43.6,0
	c-2,0-4.5,0.6-5.9-1.9c1.4-2.2,3.7-1.7,5.7-1.7c15.3,0.2,30.6-0.3,45.9,0.2c0.3,0,0.8-0.2,1.1-0.2c23-0.2,46.1,0,69.1,0
	c1.5,0,2.9,0.5,4.5,0.3c1.4-0.3,2.9-0.3,4.5-0.3c34.8,0,69.6,0,104.3,0c2.2,0,4.5-0.3,6.3,1.4
	C1335.2,219.2,1335.2,219.4,1335.2,219.7z"/>
<path class="st7" d="M1162.2,232.2c21.8,0,43.6,0,65.4,0c0.9,0,2,0.2,2.9,0.2c34.3,0,68.8,0,103.1,0c0.5,0,0.9,0,1.5,0
	c0,0.3,0,0.5,0,0.8c-1.4,1.4-3.1,1.5-4.8,1.5c-32.8,0-65.4,0-98.2,0c-1.2,0-2.5-0.3-3.7-0.3c-3.9,0.6-7.9-0.2-11.7-0.2
	c-15.8,0-31.5,0-47.3,0c-1.5,0-3.2,0.6-4.6-1.4c0,0,0.9,0.3,0.5,0.5c-0.2,0.2-0.2,0.2,0.2,0.3c1.4,0.9,2.9,0.6,4.3,0.6
	c15.5,0,30.9,0,46.2,0c1.7,0,3.9-0.8,4.3,2c-1.5,1.5-3.7,1.4-5.6,1.4c-15.6-0.2-31.1,0.5-46.7-0.3c-0.6,0-1.2,0.2-1.9,0.3
	c-26,0.2-51.9,0-77.9,0.2c-0.8,0-1.5,0-2.2-0.3c-0.5-0.2-0.9-0.3-1.2-0.6c-1.4-2,0-3.4,1.2-4.8c0.5-0.3,0.9-0.5,1.4-0.5
	c1.9-0.6,3.7-0.5,5.6-0.5c20.2,0,40.5,0,60.7,0C1156.6,230.7,1159.4,231,1162.2,232.2z"/>
<path class="st8" d="M1335.2,252.3c-32.3,0-64.5,0-96.8,0c-0.3,0-0.8,0-1.1,0.2c-0.6,0.5-1.2,0.3-1.9-0.2c-1.1-2-2.9-1.4-4.6-1.4
	c-14.7,0-29.4,0-44.1,0c-2.5,0-4.9-0.2-7.3-0.8c-0.5-0.3-0.8-0.6-0.9-1.1c1.1-1.9,2.9-1.9,4.6-1.9c15.8,0,31.7,0,47.5,0
	c1.7,0,3.2,0.3,4.5,1.5c1.1,0,2.2,0.2,3.2,0.2c31.2,0,62.6,0,93.8,0c0.9,0,2-0.2,2.9-0.2C1335.2,249.8,1335.2,251.1,1335.2,252.3z"
	/>
<path class="st9" d="M1246.9,281.2c1.4,0,2.8,0.2,4,0.2c26.6,0,53.2,0,79.8,0c1.5,0,2.9,0,4.5-0.2c0,1.2,0,2.5,0,3.7
	c-27.4,0-54.7,0-82.1,0c-1.5,0-3.2,0-4.8-0.2c-1.5-1.1-3.2-1.4-5.3-1.4c-11.1,0-22.4,0-33.5,0c-2,0-4,0.2-5.6-1.2
	c-0.3-0.5-0.2-0.9,0.2-1.2c1.4-1.2,3.2-1.1,4.9-1.1c10.8,0,21.5,0,32.3,0C1243.4,279.7,1245.2,280.1,1246.9,281.2z"/>
<path class="st10" d="M1335.2,268.7c-29.1,0-58.1,0-87.2,0c-1.5,0-3.2,0.2-4.8,0.2c-0.3,0.2-0.6,0.2-0.9,0c-0.8-1.2-2.3-2.2-2-4
	c0.5-0.3,1.1-0.2,1.5,0c0.9,0,2,0.2,2.9,0.2c30.1,0,60.3,0,90.6,0C1335.2,266.2,1335.2,267.4,1335.2,268.7z"/>
<path class="st11" d="M1335.2,218.9c-34.5,0-68.9,0-103.4,0c-3.9,0-7.7,0-11.4,0c-0.8-0.9-2-1.5-1.7-3.1c0.3-0.3,0.6-0.3,0.9-0.2
	c1.5,0,3.2,0.2,4.8,0.2c36.9,0,73.9,0,111,0C1335.2,216.9,1335.2,218,1335.2,218.9z"/>
<path class="st12" d="M1228.4,233c35.7,0,71.3,0,107,0c0,1.2,0,2.5,0,3.7c-0.3,0-0.8-0.2-1.1-0.2c-34.3-0.6-68.8-0.6-103.1-0.6
	c-0.3,0-0.8,0-1.1,0.2c-0.6,0.5-1.4,0.6-2,0.2C1227.4,235.1,1228.2,234.2,1228.4,233z"/>
<path class="st13" d="M1253.4,315.2c0.6-0.3,1.1-0.5,1.7-0.8c0.2,0,0.5,0,0.6,0c0.3-0.2,0.6-0.3,0.8-0.5c2.5-1.1,4.3-2.9,5.9-4.9
	c2-2.6,4.3-5.1,6.5-7.6c2.2-2.6,4.8-3.9,8-3.9c2,0,4-0.2,5.9,0c15.9,1.1,31.8,0.3,47.8,0.6c1.5,0,2.9,0.2,4.5,0.2c0,1.2,0,2.5,0,3.7
	c-12.4,0-24.6-0.2-36.9-0.2c-5.9,0-11.7-0.6-17.6-0.6c-4.3-0.2-7.7,1.5-10.4,4.6c-2.6,3.2-6,5.9-8.5,9.3c-1.4,2-3.7,2.8-6,3.2
	c-0.6,0.5-1.2,0.6-1.9,0.3C1252.8,317.7,1254,316.3,1253.4,315.2z"/>
<path class="st14" d="M1313.7,203.3c-31.8,0-63.8,0-95.7,0c-2,0-3.9,0-5.9-0.2c0.3-1.9,1.9-1.9,3.1-2c1.4-0.3,2.9-0.2,4.5-0.2
	c21.2,0,42.2,0,63.4,0c6.8,0,13.8-0.2,20.6,0.5c-1.5-0.3-3.4,0.5-3.9-1.9c9.3,0,18.7-0.2,28,0c2.5,0,5.1,0.5,7.7,0.6
	c0,0.9,0,2,0,2.9c-4.2,2.8-8.8,1.2-13.3,1.4C1319.3,204.8,1316.3,204.2,1313.7,203.3z"/>
<path class="st15" d="M1313.7,203.3c7.1,0,14.4,0,21.5,0c0,2.9,0,5.9,0,9c-3.9-1.7-7.9-3.4-11.7-5.1
	C1320.3,205.6,1316.6,205.5,1313.7,203.3z"/>
<path class="st16" d="M1053.2,77.2c6.6,2.2,13.3,4.6,19.6,7.7c6.5,2.9,13,6,19.3,9.3c6.6,3.4,13,7.1,19.3,11
	c7.7,4.8,15.1,9.7,22.3,15.1c5.1,3.9,10.2,7.9,15,12.1c8.3,7.1,16.2,14.7,24,22.6c7.1,7.3,13.6,15.3,19.9,23.3
	c2.5,3.2,4.9,6.5,7.4,9.6c-2,2-4.8,1.7-7.3,2c-17.9,1.7-35.6,4.8-53,9.7c-2,0.6-4.2,0.3-6.2,0.5c-2.3,0.2-4.6-0.3-7,0.6
	c-8.3,0.3-16.5,1.5-24.9,1.1c-3.7-0.2-7.4-0.6-10.2-3.4c-0.6-0.6-1.1-1.2-1.4-2.2c-5.3-20.2-10.5-40.5-16.8-60.6
	c-6-18.2-12.5-36.3-19.5-54.3C1053.2,80.1,1052.5,78.7,1053.2,77.2z"/>
<path class="st17" d="M998,60.3c16.8,2.9,33.5,6.6,49.8,12.2c1.4,0.5,2.5,1.2,3.4,2c0.6,1.1,1.4,1.9,2,2.6
	c2.5,5.1,4.3,10.5,6.5,15.8c4.2,10.7,8,21.5,11.6,32.3c4.2,12.8,8.3,25.8,11.9,38.8c2.9,10.5,5.6,21.2,7.9,31.8
	c-1.9,0.6-3.1-0.8-4.2-1.9c-7-7.1-14.5-13.8-20.9-21.5c-2.9-3.4-6.2-5.1-10.8-5.1c-13.6,0.2-27.2,0.2-40.7,0
	c-4.8,0-9.6,1.1-14.4,0.6c-4.5-0.3-8-2-10-6.3c-0.2-11.9-0.9-23.8-0.2-35.7c0-8.3,0-16.7,0-25c0-4.6,0-9.3,0-14.1c0-0.9,0-2.8,0-2.8
	l-1-22.6"/>
<path class="st18" d="M1048.7,74.8c-4.2-0.2-7.9-1.9-11.7-3.2c-7.7-2.9-15.9-4.2-24-6.2c-5.6-1.4-11.3-2.5-17-3.4
	c-2.3-0.5-4.6-0.2-7-0.5c0-21.5,0-43,0-64.5c0.6,0,1.1-0.2,1.2,0c2.8,2.6,5.4,5.3,8,8c2.3,2.3,4.6,4.8,7,7.1
	c5.3,5.7,10.8,11.1,15.6,17.2c7.7,9.6,15.5,19.2,21,30.3C1044.5,64.6,1047.1,69.4,1048.7,74.8z"/>
<path class="st5" d="M1201.6,188.5c7.3-1.1,14.5-0.8,21.8-0.6c6.2,0,12.5,0.8,18.7,1.2c9.9,0.6,19.5,2.3,29.2,3.9
	c7.6,1.2,15.1,2.8,22.4,5.9c-1.1,1.4-2.6,1.1-4.2,1.1c-25.8,0-51.5,0-77.3,0C1207.2,199.9,1201.9,194,1201.6,188.5z"/>
<path class="st19" d="M1201.6,188.5c2,2.9,4.2,5.9,6,8.8c0.8,1.1,1.7,1.7,3.1,1.7c0.5,0,0.9,0,1.5,0c26.6,0,53,0,79.6,0
	c0.6,0,1.2,0,1.9,0c0.8,0,1.4,0,2.2,0.2c0.2,0.5,0.2,0.9-0.3,1.2c-1.5,1.1-3.2,0.9-4.9,0.9c-25.2,0-50.5,0-75.7,0
	c-1.5,0-3.2-0.3-4.8-0.3c-1.4,0.3-2.6,0.2-4,0.2c-24.3,0-48.5,0-73,0c-2-0.8-4.5,0.5-6.2-1.5c0.9-0.6,1.9-0.6,2.8-0.6
	c5.3,0.2,10.2-0.3,15.1-2c7.9-2.8,16.2-4,24.4-5.3c8-1.2,15.9-2.8,24.1-3.1c2.3,0,4.6-0.8,7-0.6
	C1200.7,188,1201.2,188.3,1201.6,188.5z"/>
<path class="st20" d="M1209.8,199.7c2.8,0,5.7-0.2,8.5-0.2c24.4,0,48.8,0,73.1,0c1.5,0,2.9-0.2,4.5-0.2c0.9-0.3,2-0.3,2.9,0
	c0.3,0.2,0.5,0.2,0.8,0.3c2.6,1.1,5.7,0.2,8.2,2c0.2,0.2,0.3,0.3,1.2,0.9c-1.9,0-3.1,0-4.3,0c-29.4,0-58.9,0-88.3,0
	c-1.4,0-2.9-0.5-4.3,0.6l0,0c-1.4,1.4-3.1,1.5-4.8,1.5c-24.6,0-49,0-73.6,0c-1.7,0-3.4-0.6-5.1-0.2c-4,0-8,0.9-11.9-0.8
	c-0.9-2.2,0.9-2.2,2-2.3c2.5-0.6,5.1-0.3,7.7-0.2c3.7,0.6,7.4-0.2,11-0.2c22.4,0,44.8,0,67.2,0
	C1206.4,201.1,1208.4,201.4,1209.8,199.7z"/>
<path class="st5" d="M1298.8,199.4c-0.9,0-2,0-2.9,0c0-0.2,0-0.3,0-0.6C1296.8,198.8,1297.9,198.7,1298.8,199.4z"/>
<path class="st17" d="M1129.7,334.7c-0.2,0.6,0,1.2,0.5,1.7c3.4,4.5,6.5,9.3,9.4,14.1c4.2,7,8.8,13.6,12.4,21
	c2.3,4.6,3.4,9.6,1.4,14.7c-1.4,3.9-4.3,6.5-7.6,8.8c-5.9,4.2-12.5,6.8-19.3,9.3c-4.3,1.7-8.8,3.4-13,5.3c-3.6,1.5-5.9,4.3-7.3,8
	c-2.5,6.6-2.2,13.6-1.5,20.6c0.3,3.1,2.3,5.9,3.7,8.8c2.2,4.5,3.2,9.3,4.6,14.1c0.5,1.7,0.2,3.2-0.5,4.6c-1.4,2.8-2.8,5.4-4.9,7.7
	c-3.4,3.6-7.3,6.6-11.6,9.7c1.4,1.1,2.5,2.3,3.7,3.1c3.9,2.6,6.8,6.2,8.8,10.4c2.8,5.6,3.4,11.1-0.6,16.7c-3.9,5.4-7.7,11-12.1,15.9
	c-4.9,5.6-5.6,11.7-4.6,18.7c1.2,9.6,4.3,18.7,6,28.1c1.4,8.3,1.9,16.5-0.8,24.9c-2.6,7.7-5.4,15.3-10.4,21.8
	c-1.1,1.4-2.3,2.6-3.4,3.9c-1.9,1.9-3.7,3.7-4.9,5.9c-0.8,1.4-1.9,2.6-3.2,3.6c-2.6,1.7-5.1,3.6-7,6c-0.8,0.9-1.9,1.2-2.9,1.4
	c-9.1,2-18.2,4.5-27.5,5.7c-9.9,1.2-19.8,2.8-29.7,3.7c-19.3,1.9-38.8,1.7-58.1,1.1c-11.4-0.3-22.9-1.9-34.3-3.2
	c-11-1.2-22-3.2-32.8-5.4c-2-0.5-2.9,0.3-3.9,2c-2,3.6-3.1,7.6-4.6,11.3c-1.5,3.6-2.5,7.3-3.6,10.8c-0.2,0.2-0.3,0.3-0.3,0.5
	c-1.5,0.8-3.2,0.2-4.6-0.3c-12.4-3.7-24.7-7.9-36.9-12.2c-0.9-0.3-1.9-0.6-2.3-1.7c-0.6-2.2,0.5-3.9,1.2-5.7
	c5.1-11.4,7.4-23.5,7.7-36c0.2-3.7,1.1-7.1,2.5-10.4c1.7-4.2,2.5-4.8,7-4c9.9,2,19.9,3.2,30,4.9c13.3,2.3,26.6,4.3,40.2,4.3
	c11.6-0.2,22.9-1.5,33.7-6c10.2-4.2,17.3-11.1,22-21.3c5.4-11.9,4-23.5,0.6-35.4c-1.4-4.9-2-10.2-2.3-15.3
	c-0.3-4.5,0.9-8.3,3.9-11.6c2.5-2.9,4.5-6.2,7-9.1c6.3-7.4,4.9-14.1-1.4-20.7c-5.7-5.7-5.7-5.7,0.5-11c1.7-1.4,3.1-2.9,4.3-4.5
	c2.8-3.4,3.1-7.1,1.5-11.1c-1.2-2.8-2.2-5.7-3.4-8.7c-2.6-5.9-2.3-11.7-1.4-17.8c0.9-5.6,4.2-9.3,9.6-11.3c4.2-1.5,8.2-3.4,12.4-4.8
	c3.7-1.2,7-3.2,10-5.6c5.9-4.3,7.3-9.3,4-15.9c-3.7-7.7-8.3-14.8-13-21.9c-11.6-17.5-24-34.5-34.8-52.6c-0.9-1.7-2.3-3.2-1.4-5.4
	c1.7-2.5,4.3-2.5,7-2.5c28.6-0.5,57,0.3,85.6,0c4.3,0,8.7-0.5,13-0.5c3.9,0,7,1.2,9.6,4c1.4,1.4,2.9,2.8,3.9,4.5
	c5.3,8.5,12.8,10.2,22.1,9c7.1-0.9,14.2-1.1,21.5,0.2C1129.1,334.1,1129.4,334.4,1129.7,334.7z"/>
<path class="st4" d="M1105,752.2c-5.9,0.9-11.6,1.7-17.5,2.8c-2.5,0.5-5.3-0.2-7.6,1.1c-4.6,0-9.3,1.1-13.9,1.7
	c-5.7,0.6-11.4,1.4-17.2,2.2c-5.9,0.5-11.7,0.8-17.6,1.4c-8.3,0.9-16.7,0.5-25,1.2c-0.6,0-1.2,0.2-1.9,0.2
	c-10.4,0.2-20.9,0.5-31.2,0.6c-4.6,0.2-9.3,0.2-13.9,0.2c-9.1-0.5-18.1-0.9-27.2-0.9c-0.5-0.2-0.9-0.3-1.4-0.5
	c-8.5-0.3-16.8-0.8-25.4-1.1c-3.2-1.1-6.6-0.9-9.9-1.2c-11.7-1.2-23.5-2.9-35.2-4.3c-4.9-0.6-10-1.5-15-1.9
	c-1.2-0.8-2.5-0.6-3.7-0.8c-2.2-1.4-0.9-3.1-0.5-4.6c3.1-9.3,6.5-18.4,9.7-27.5c4-11,7.9-22.1,11.7-33.1c1.2-3.6,3.1-5.9,7-6.2
	c8.7-0.3,17.2-0.8,25.8-1.4c1.9-0.2,3.6-0.6,5.4-0.5c0.5,0,0.9,0.2,1.2,0.2c0.9,0,1.7,0.3,2.5,0.5c5.3,1.5,10.7,1.9,16.1,2.5
	c11.7,1.1,23.5,1.2,35.2,1.2c20.4,0,40.3-2.3,60.3-6.6c14.8-3.2,29.4-7.6,43.6-13c9.7-3.7,19.2-7.9,28.4-12.4
	c9.6-4.6,18.9-9.9,27.8-15.6c8.2-5.3,16.2-10.8,23.8-16.8c6.5-5.1,13-10.4,19-15.9c7-6.3,13.6-13,19.8-19.9
	c5.7-6.3,11.3-12.8,16.4-19.6c4.9-6.5,9.9-13.3,14.4-20.2c6.8-10.7,13-21.5,18.7-32.8c6.3-12.7,11.4-25.7,16.2-39
	c1.1-2.9,1.9-6.2,2.9-9.1c0.3-1.1,0.5-2.5,1.4-3.2c0.9-0.2,1.2,0.5,1.5,0.9c5.1,7.7,10.7,15.1,15.8,22.9c4.6,7.1,9.3,14.2,13.3,21.8
	c3.6,6.8,2.9,10.5-2.8,15.6c-4.2,3.9-9.6,5.4-14.7,7.7c-2.8,1.2-5.7,2.3-8.7,3.4c-4.8,1.7-7,5.3-7.7,10c-0.5,3.9-0.3,7.6-0.2,11.4
	c0,1.5,0.9,2.8,1.4,4.2c1.2,2.8,2.5,5.6,3.6,8.5c1.7,4.6,1.2,9-2.6,12.5c-2.3,2.2-4.2,4.8-7.1,6.3c-1.7,0.9-1.7,1.9-0.2,3.1
	c3.2,2.3,6,5.1,7.7,8.8c1.7,3.6,2.5,6.8-0.2,10.4c-2,2.9-3.9,6-6.3,8.7c-1.5,1.9-2.9,4-4.3,5.9c-2.3,2.9-2.6,6.2-2.2,9.7
	c0.5,3.9,1.2,7.7,2.3,11.6c1.4,5.1,2,10.4,2.9,15.6c1.1,5.9-0.8,11.6-2.6,17c-4.3,12.8-13.8,20.4-26.3,24.6
	c-10,3.2-20.4,3.9-30.8,3.7c-16.7-0.3-33.2-3.2-49.6-6.2c-4.9-0.9-10-1.5-15-2.5c-2-0.3-2.9,0.3-3.6,2.2c-1.4,3.9-2.2,7.9-2.3,11.9
	c-0.5,9.7-2.3,19-5.4,28.3c-0.9,2.8-2.3,5.4-3.6,8.2c-1.1,2.5-1.1,2.5,1.2,3.6c0.9,0.5,2,0.9,2.9,1.5
	C1105.6,751.3,1105.2,751.7,1105,752.2z"/>
<path class="st6" d="M1257.9,334.1c0.5,6.5,1.1,13,1.5,19.5c0.5,7.1,0.9,14.2,0.6,21.5c-0.5,11.7-1.5,23.3-2.6,35.1
	c-1.4,13.9-4.8,27.4-7.7,41.1c-0.5,1.9-1.1,3.7-1.5,5.4c-1.2-0.2-1.4-0.9-1.9-1.5c-6-9.1-11.9-18.1-17-27.7
	c-2.3-4.3-2.6-8.7-0.9-13.1c1.9-5.4,3.9-11,6.5-16.1c2.3-4.8,2.3-9.6,1.4-14.4c-2.3-11.9-5.1-23.7-8.8-35.1
	c-1.4-4.6-2.6-9.3-4.3-13.8c0.2-0.2,0.3-0.3,0.3-0.6c0.8-0.6,1.7-0.9,2.8-0.9c10.2-0.2,20.6-0.2,30.8-0.2
	C1257.4,333.4,1257.7,333.8,1257.9,334.1z"/>
<path class="st6" d="M1253.6,318.1c0.8,0,1.4,0.2,2.2,0.2c0.5,4.3,1.1,8.7,1.5,13c-0.2,0.5-0.5,0.8-0.8,0.9c-8.5,0.3-16.8,0-25.4,0
	c-2.6,0-5.4,0.3-8-0.3c-0.5,0-0.8-0.2-1.2-0.5c-3.1-4.2-4.3-9.1-4.6-14.2c0.3-0.3,0.6-0.6,1.1-0.8c6.2-1.1,12.4-0.5,18.7-0.3
	c2.6,0,5.4,0,8,0.3c2.5,0.8,5.1,0.6,7.7,0.9C1252.9,317.7,1253.2,317.8,1253.6,318.1z"/>
<path class="st21" d="M1221.6,330.8c0.3,0.2,0.6,0.2,0.9,0.3c1.1,1.1,1.4,2.2,0.6,3.6l-0.2,0.3c-1.7,0-3.4-0.2-5.3-0.2
	c-29.4,0-58.7,0-88.1,0c-0.3,0-0.6-0.2-0.9-0.2c-1.7-1.2-3.7-2.3-0.9-4.5c1.4-0.6,2.9-0.6,4.3-0.6c28,0,55.8,0,83.8,0
	C1218,329.4,1220,329.4,1221.6,330.8z"/>
<path class="st22" d="M1257.9,334.1c-0.2,0-0.3-0.2-0.6-0.2c-0.8-0.8-0.6-1.5-0.2-2.3v-0.3c4.9,0.5,9.7,0.2,14.2-2.6
	c1.7-1.1,3.4-1.5,5.1-0.2c1.7,1.2,2.5,3.1,2.2,5.3c-0.3,2.8-2.9,4.5-5.7,3.7c-0.8-0.2-1.4-0.5-2-0.9
	C1267,334.2,1262.5,333.9,1257.9,334.1z"/>
<path class="st6" d="M1128.2,203.4c7.9,0,15.8-0.2,23.7-0.2c20.1,0,40.2,0,60.3,0c2.2,4.3,4.5,8.7,7.4,12.5c-0.3,0-0.5,0.2-0.8,0.2
	c-1.2,1.5-3.1,1.4-4.8,1.4c-21.5,0-43,0-64.5,0c-1.4,0-2.6-0.3-4-0.3c-0.9,0-1.7,0.2-2.6-0.3c-4-3.7-8.3-7-12.8-10.2
	C1129,205.9,1127.9,205.1,1128.2,203.4z"/>
<path class="st6" d="M1227.6,235.9c0.8,0,1.5,0.2,2.3,0.2c1.4,3.1,2.6,6.3,4,9.4c0.5,1.1,1.1,2,1.2,3.1c-17.5,0-34.8,0-52.2,0
	c-1.4,0-2.9-0.3-4.3,0.6c-1.2,1.5-2.9,1.5-4.6,1.5c-20.2,0-40.7,0-60.9,0c-1.7,0-3.6,0-4.6-1.5c0.3-2,2-1.9,3.4-2
	c2.2-0.3,4.5-0.2,6.6-0.2c17.3,0,34.5,0,51.8,0c1.4,0,2.6,0.2,4.3-0.3c-2-2.6-4-4.8-6.3-7c-1.1-1.1-2.3-2-2-3.7
	c16.4,0,32.9,0,49.3,0c1.5,0,3.2-0.2,4.8-0.2C1222.6,234.1,1225.1,234.1,1227.6,235.9z"/>
<path class="st6" d="M1256.6,314c-0.3,0.2-0.6,0.3-0.8,0.5C1256,314.3,1256.3,314.1,1256.6,314z"/>
<path class="st16" d="M1221.6,330.8c-3.4,0-7,0.2-10.4,0.2c-26.7,0-53.5,0-80.1,0c-1.5,0-2.9,0-4.5,0.2c-0.2,0-0.3,0-0.6-0.2
	c-1.1-0.5-1.9-1.2-2.5-2.2c-4.8-7.9-10.7-15-15.5-22.7c-0.9-1.4-2.2-2.8-0.6-4.6c3.4-1.5,6.6-3.4,8.7-6.6
	c5.9-9.6,14.5-13.1,25.4-11.9c3.6,0.5,7.1,0.9,10.7,0.8c1.2,0,2.5,0.2,3.2,1.4c1.4,0.9,2.9,0.5,4.3,0.6c13.8,0,27.4,0,41.1,0
	c3.9,0,3.7,0,5.4,3.6c1.2,2.6,2,5.3,2.8,7.9c-1.2,0.8-2.6,0.5-3.7,0.5c-11.9,0-24,0-35.9,0c-1.4,0-2.9-0.3-4.3,0.6
	c-0.3,0.6-0.8,1.1-1.4,1.1c-6.2,0.3-12.2,1.4-18.2-1.4c-0.5-0.2,0.2,0-0.3-0.2c-1.7-0.8-3.4-1.9-4.9,0.2c-0.9,1.1-1.1,2.5-0.3,3.7
	c1.4,2.2,3.4,1.4,4.9,0.6c4.8-2.5,10-2.3,15.1-2.2c1.4,0,2.8,0,3.6,1.4c1.4,0.9,2.9,0.6,4.3,0.6c13.3,0,26.4,0,39.7,0
	c3.1,0,3.9-0.9,5.4,3.6c0.9,2.9,2,5.9,2.5,8.8c-1.7,2.2-4,1.5-6.2,1.5c-21.9,0-43.9,0.3-65.8-0.3c-1.4,0-2.8-0.2-4,0.2
	c-4,1.1-7.6,0.5-10.8-2c-1.9-1.4-3.7-1.2-4.9,0.9c-0.6,1.2-0.3,2.5,0.5,3.4c0.9,1.1,2.2,1.1,3.4,0.6c8.2-4,17-3.2,25.7-2.9
	c10,0.3,19.9,0.2,30,0.2c9.6,0,19,0,28.6,0c1.9,0,4-0.3,5.4,1.7C1219.5,321.9,1220.3,326.5,1221.6,330.8z"/>
<path class="st13" d="M1155.7,285.1c-5.3-0.3-10.5-0.6-15.8-0.8c-0.9,0-1.7,0-2.6,0c-7.7-0.6-13.6,2.5-17.9,8.8
	c-1.4,2-2.8,4-4.6,5.7c-2,1.9-4.2,3.4-7.1,3.4c-0.3,0.2-0.8,0.2-1.2,0c-1.4-1.2-3.1-2.5-1.1-4.6c4.8-1.2,7.9-4.9,11-8.3
	c1.7-2,3.4-3.9,5.3-5.7c2.6-2.3,5.6-3.7,9-3.7c22.9,0,45.6,0,68.5,0c1.1,0,2.2,0.3,3.2,0.5c0.8,0.2,1.2,0.5,1.7,1.1
	c0,0.2,0,0.5,0,0.6c0.3,0.9,0.9,2,0,2.9c-14.1,0-28.3,0.2-42.4,0.2C1159.6,284.9,1157.6,285.1,1155.7,285.1z"/>
<path class="st23" d="M1217.2,317.8c-1.5,0-2.9-0.2-4.5-0.2c-17.9,0-35.9,0-53.6,0c-5.4,0-10.8-0.9-16.2-0.8c-2.8,0-5.7,0.5-8.5,0.9
	c-2.2,0.3-4.2,1.5-6,2.8c-2.2,1.4-4.5,0.9-5.6-0.8c-1.5-2.2-1.4-5.4,0.5-7.1c1.7-1.7,3.7-2,5.6-0.3c3.4,3.1,7.1,3.4,11.4,2.6
	c2.3-0.5,4.9-0.3,7.4-0.3c21.9,0,43.9,0,66,0c0.8,0,1.5-0.2,2.2-0.2c0.3,0,0.6,0.2,0.8,0.2c0.8,0.8,1.7,1.5,0.6,2.8
	C1217.2,317.5,1217.2,317.7,1217.2,317.8z"/>
<path class="st23" d="M1163.7,301.5c-2.8,0-5.7-0.2-8.5-0.2c-3.2,0-6.3,0.2-9.3,2c-0.6,0.5-1.5,0.6-2.5,0.9
	c-2.2,0.8-3.9,0.2-4.9-1.4c-1.2-2-0.9-4.8,0.8-6.5c1.5-1.5,3.1-2,4.9-0.6c3.7,2.8,7.7,2.9,12.1,2.8c2.9-0.2,5.9-0.2,8.8-0.3
	c14.7,0,29.4,0,44.1,0.2c0.3,0,0.8,0,1.1,0c0.9,0.9,1.5,1.9,0.8,3.1c-14.5,0-28.9,0-43.4,0C1166.5,301.3,1165.1,301.5,1163.7,301.5z
	"/>
<path class="st24" d="M1211.2,301.3c-0.5-0.9-0.8-2-0.8-3.1c6.2,0,12.4,0,18.5,0.2c3.7,0,7.1-0.6,10.2-2.6c2.6-1.7,4-1.4,5.4,0.6
	c1.5,2.2,1.2,6.2-0.6,7.6c-0.8,0.5-1.5,0.9-2.5,0.6c-0.8-0.2-1.5-0.3-2-0.8c-3.9-2.8-8.3-2.8-12.8-2.6
	C1221.6,301.3,1216.5,301.8,1211.2,301.3z"/>
<path class="st25" d="M1203.9,284.8c0-0.9-1.2-1.9,0-2.9c13.4,0,26.7,0.2,40.2,0c2.3,0,3.7,0.6,4.3,2.9c-3.2,0-6.3,0.2-9.6,0.2
	c-10,0-20.2,0-30.3,0C1206.9,285.1,1205.3,284.9,1203.9,284.8z"/>
<path class="st26" d="M1217.2,317.5c-0.2-0.9-0.5-1.9-0.6-2.8c7.7-0.2,15.5-0.5,23.2,0.5c4.5,0.5,9.1,0.3,13.6,0
	c0.8,0.2,1.7,0.3,2,1.2c0.3,1.4-1.4,0.9-1.9,1.7c-0.3,0-0.5,0-0.8,0c-2.5-0.8-5.1,0.2-7.4-0.6
	C1235.9,317.5,1226.7,317.5,1217.2,317.5z"/>
<path class="st6" d="M1241.7,264.8c-0.5,0.2-0.9,0.2-1.5,0.3c-1.2,1.4-2.8,1.4-4.5,1.4c-13.6,0-27.2,0.2-40.8,0
	c-1.1-0.3-2.2-0.3-3.2-0.6c-3.6-3.2-6-7.4-9.1-11.1c-0.6-0.8-0.9-1.7-0.2-2.6c0.3-0.3,0.8-0.5,1.2-0.6c1.5-0.5,3.2-0.3,4.8-0.3
	c13.9,0,27.8,0,41.7,0c2,0,4-0.3,5.6,1.4c0.5,0,1.1,0.2,1.5,0.2C1238.4,256.6,1240,260.8,1241.7,264.8z"/>
<path class="st19" d="M1203.9,281.4c-0.5,0-1.1-0.2-1.5-0.2c-3.2-2.8-4.8-6.8-7.1-10.2c-0.8-1.2-0.6-2.6,1.1-3.4
	c1.1-0.5,2.2-0.5,3.2-0.5c12.8,0,25.7,0,38.5,0c1.7,0,3.2,0.2,4.5,1.4c0.3,0.2,0.6,0.2,0.9,0.3c1.2,4.2,2.5,8.3,3.7,12.4
	c-12.8,0-25.8,0-38.6,0C1206.9,281.2,1205.3,281.4,1203.9,281.4z"/>
<path class="st16" d="M1162.2,232.2c-1.5,0-3.2,0.2-4.8,0.2c-22.3,0-44.5,0-66.8,0c-1.4,0-2.8,0-4-0.2c-0.6-0.6-0.8-1.4-0.5-2
	c1.7-3.7,2.9-7.7,5.6-10.8c0.8-0.3,1.5-0.5,2.2,0.2c16.5,0,33.1,0.2,49.6,0c3.6,0,5.9,1.1,8.5,3.4
	C1155.6,226,1158.6,229.4,1162.2,232.2z"/>
<path class="st27" d="M1144.6,216c18.1,0,36.3,0,54.4,0c6.5,0,13.1,0,19.6,0c0.9,0.8,1.7,1.5,1.5,2.9c-23.8,0-47.5,0-71.3,0
	c-0.8,0-1.5-0.2-2.2-0.2C1145.8,218.1,1144,218,1144.6,216z"/>
<path class="st23" d="M1144.6,216c0.8,0.9,1.4,1.9,2.2,2.8c-15.9,0-31.8,0-47.6,0.2c-1.7,0-3.4-0.5-5.1,0.6
	c-0.8,0.2-1.4,0.2-2.2,0.3c-0.2-0.2-0.3-0.3-0.3-0.3c0.2-1.9-3.4-1.4-2.5-3.9c1.4-1.2,3.2-0.8,4.9-0.9c12.7-0.6,25.4-0.2,38-0.3
	c2,0,3.9,0,5.9,0c1.7,0,3.2,0.3,4.5,1.4C1143,216,1143.8,216,1144.6,216z"/>
<path class="st17" d="M1084.4,235.9c0.3,0.2,0.6,0.2,0.8,0.3c0.9,1.4,0.3,2.6-0.2,3.9c-0.9,2.8-2,5.6-2.8,8.5
	c-1.1,3.7-1.1,7.6,0.3,11.3c0,0.5,0,0.8-0.2,1.2c-6,7.4-12.8,13.9-20.1,20.1c-3.7,3.2-8.3,2.5-12.8,2c-3.9-0.3-7.6-0.5-11.4,0
	c-6.2,0.9-11.4-0.8-15.6-5.7c-0.8-0.9-1.5-1.5-2.2-2.5c-5.1-9.1-13.6-10-22.7-9.1c-4.9,0.6-9.9,0.2-14.8,0.8
	c-1.2,0.2-2.5-0.2-3.1-1.5c0.2-4.6,1.2-9.1,3.6-13.1c1.7-0.9,3.6-0.9,5.4-0.9c7.6,0,15-0.2,22.6,0c7,0.2,13.8-0.5,20.7-0.5
	c3.7,0,7.1,0.6,10.4,2.5c1.5,0.9,3.2,1.4,4.6-0.3c1.1-1.2,1.1-2.8,0-4c-1.4-1.7-3.2-1.5-4.9-0.3c-2.9,2-6,2.3-9.4,2.3
	c-14.7,0-29.4-0.9-44.1-0.5c-0.9,0-2,0-2.9-0.5c-0.5-0.2-0.8-0.5-1.1-0.8c-0.3-0.3-0.5-0.8-0.5-1.2c0.2-3.9,0.6-7.7,2.5-11.3
	c0.5-0.3-0.2-0.2,0.3-0.3c6.8-2,13.6-3.1,20.6-0.8c1.1,0.5,2.2,1.2,3.4,1.5c1.5,0.3,2.9,0,3.9-1.4c0.8-1.1,0.3-2.2-0.3-3.1
	c-0.9-1.4-2.3-2-3.9-1.1c-5.7,3.6-12.1,2.8-18.4,2.9c-1.7,0-3.6,0.2-4.8-1.4c-1.7-4.5-0.5-8.8,0.6-13.3c1.2-1.9,3.2-2,5.3-2
	c15,0,29.8-0.2,44.8,0c4.9,0,9.1,2.2,12.2,6c1.1,1.4,2.3,2.5,3.2,4c4.6,7.1,11.6,8,19.2,7.4C1076.7,234.7,1080.7,233.4,1084.4,235.9
	z"/>
<path class="st17" d="M1091.9,219.8c-0.6,3.1-2.2,5.6-3.6,8.3c-0.6,1.2-1.5,2.5-1.7,4c-0.3,0-0.6,0.2-0.8,0.2
	c-0.9,0.9-2.2,1.2-3.4,1.2c-6,0.2-12.1,0.2-18.1,0c-2.9-0.2-5.3-1.4-7.3-3.4c-2.2-2.2-4.2-4.6-6-7c-3.6-4.8-8.2-7-14.1-6.5
	c-14.1,0.9-28.1,0.8-42.2,0.8c-2,0-4.2,0.3-6.2-1.1c-1.9-3.2-0.5-6.5,0.2-9.6c0.8-1.2,0.9-2.9,2.2-4c2-1.1,4-0.9,6.2-0.9
	c13.6,0,27.2-0.2,40.7,0c5.3,0,10.5-0.8,15.9-0.8c4.9-0.2,8.8,1.5,12.2,5.1c2.3,2.5,4.6,5.1,6.8,7.7c2.6,3.1,5.7,4.2,9.7,4.3
	c3.1,0,6.5-0.9,9.3,1.1C1091.9,219.5,1091.9,219.7,1091.9,219.8z"/>
<path class="st16" d="M1082.1,259.7c-2-1.9-2.3-4.3-2-6.6c0.6-5.4,2.5-10.5,4.6-15.5c0.2-0.5,0.3-0.9,0.5-1.4
	c1.1-0.2,2.2-0.3,3.2-0.3c25,0,50.2,0,75.3,0c0.8,0,1.5,0.2,2.2,0.2c3.7,2.8,6,6.8,9.7,9.4c0.8,0.6,1.4,1.4,1.5,2.6
	c-1.1,0.8-2.5,0.5-3.7,0.5c-20.4,0-40.7,0-61.1,0c-1.5,0-2.9,0-4.5,0.2c-1.9,1.9-4.2,1.4-6.3,1.1c-6.3-0.6-11,1.7-14.7,6.8
	C1086,258.2,1084.8,260.2,1082.1,259.7z"/>
<path class="st28" d="M988.9,215.8c12.4,0,24.7,0.2,36.9-0.2c4.5-0.2,9.1-0.6,13.6-0.5c4.6,0.2,8.3,1.9,11.3,5.4c2,2.5,4,4.9,6,7.4
	c2.5,3.1,5.6,4.5,9.6,4.3c6.3-0.3,12.8,0,19.3,0c0.3,1.5-0.2,2.6-1.4,3.4c-4.2,0.2-8.3,0.2-12.5,0.6c-3.4,0.5-6.6-0.2-9.9-0.8
	c-2.2-0.3-4.2-1.5-5.7-3.2c-2.3-2.6-4.6-5.3-6.6-7.9c-2.9-3.7-6.6-5.7-11.4-5.7c-15.6,0-31.1,0.2-46.7,0.2c-0.9,0-1.7,0.2-2.5,0.6
	C987.5,218.4,987.5,217.1,988.9,215.8z"/>
<path class="st29" d="M1227.6,235.9c-2.5,0-4.9,0-7.4,0c-1.4-0.9-2.8-0.6-4.3-0.6c-15.6,0-31.4,0-47,0c-1.9,0-3.7,0.2-4.9-1.7
	c0-0.8,0.8-0.6,1.1-0.6c21,0,42.2,0,63.2,0C1228.5,234.1,1229,235.1,1227.6,235.9z"/>
<path class="st30" d="M1082.1,259.7c1.7-1.4,3.4-2.9,4.6-4.6c1.2-1.9,2.9-3.2,4.8-4.6c1.7-1.2,3.4-1.9,5.4-1.9
	c3.7,0,7.4,0.2,11.1,0.2c1.2,0.8,2.6,0.6,4,0.6c22.1,0,44.2,0,66.3,0c0.3,0,0.6,0.2,0.9,0.2c0.9,0.9,3.1,0.6,2.8,2.8l0.2,0.3
	c-1.4,1.4-3.2,1.2-4.9,1.2c-22.4,0-44.8,0-67.4,0c-2.8,0-5.6-0.6-8.5-0.8c-3.9,0-7.1,1.2-10,4c-2.5,2.5-4.3,5.4-7.3,7.3
	c-0.5,0.2-0.9,0.3-1.2,0.2c-1.5-0.9-1.9-2.3-1.1-4C1082.1,260.2,1082.1,260,1082.1,259.7z"/>
<path class="st31" d="M1182.3,252.1c-0.9-0.9-2.5-1.4-2.8-2.8c17.5,0,34.9,0,52.4,0c0.9,0,2,0,2.9,0.2c1.7,0.3,1.9,1.4,1.1,2.8
	C1218,252.1,1200.1,252.1,1182.3,252.1z"/>
<path class="st32" d="M1242.4,268.5c-14.1,0-28.1,0-42.4,0.2c-1.7,0-3.4,0-5.3,0.2c-0.2,0-0.3,0-0.5-0.2c-1.4-1.1-3.4-2.3-0.2-3.6
	c15.3,0,30.6,0,46.1,0C1241.8,265.7,1242.9,266.7,1242.4,268.5z"/>
<path class="st33" d="M990.9,162.5c4.6,5.6,11,4.6,17.2,4.2c2-0.2,3.9-0.3,5.9-0.3c13.9,0,27.8,0.2,41.9-0.2
	c4.5-0.2,7.7,1.5,10.7,4.8c7.4,8.5,15.6,16.1,23.5,24.1c0.3,0.3,0.8,0.6,1.2,0.9c0.3,0.5,0.5,0.9,0.8,1.4c0.8,1.4,1.4,2.8-0.3,4
	c-3.2,0.2-4.9-2.2-7-4.2c-7.1-7.3-13.8-14.8-20.9-22.1c-2.9-2.9-6.2-4.3-10.2-4.2c-11.7,0.6-23.5,0.2-35.2,0.3
	c-4.6,0-9.1,0.2-13.6,0.6c-5.4,0.5-11,0.6-14.5-4.9C989.8,165.3,989.5,163.7,990.9,162.5z"/>
<path class="st13" d="M1091.1,201.1c1.4-1.1,0.5-2.6,0.8-3.9c3.1,2.5,6.8,2.8,10.5,2.9c8.2,0.3,16.2-0.8,24.4-0.8c2,0,4,0.2,5.9,0.2
	c0,1.7-1.4,1.9-2.5,2c-1.2,0.3-2.6,0.3-3.9,0.8c-2.6,0-5.3,0-7.9,0.2c-0.8,0-1.4,0.2-2,0.6c-0.5,0.8-1.2,1.2-2.2,1.4
	c-7.1,1.4-14.2,1.5-21.3-0.9C1092,203.1,1090.9,202.5,1091.1,201.1z"/>
<path class="st34" d="M1126.2,202.5c1.9-1.5,4.5-1.4,6.5-2.8c6.6,0,13.3-0.2,20.1-0.2c17.5,0,34.9,0,52.2,0c1.5,0,3.2,0.2,4.8,0.2
	c0.3,0.8,0.6,1.5,0.9,2.3c-0.5,0.8-1.1,0.5-1.7,0.5c-26.9,0-53.9,0-80.8,0C1127.4,202.5,1126.8,202.5,1126.2,202.5z"/>
<path class="st16" d="M1092.6,202.5c6.3,1.7,12.8,1.7,19.3,1.1c1.4-0.2,2.9-0.3,4.3-0.5c3.9,0.3,7.9-0.3,11.7,0.2
	c3.1,2.9,6.6,5.3,10.2,7.9c1.7,1.2,3.6,2.3,4,4.5c-16.4,0-32.6,0-49,0C1091.4,211.5,1090.3,207.2,1092.6,202.5z"/>
<path class="st35" d="M855.9,17.4c8.3,14.5,17.1,28.6,26.5,42.5c9.1,13.6,18.6,27.4,27.7,41c5.6,8.3,11.2,16.2,16.5,24.5
	c9.4,14.7,18.9,29.2,26.2,45.1c5,10.6,1.5,20.6-6.8,27.7c-6.8,5.9-14.5,10.3-23,13.3c-10,3.8-20.4,7.4-30.1,12.4
	c-3.2,1.8-5.9,4.1-7.1,7.4c-5.6,13.6-6.8,27.1-1.2,41c2.9,7.4,6.2,14.7,8.6,22.4c1.8,5.9,0.6,10.9-2.9,15.9
	c-3.8,5.6-8,10.3-13.6,14.2c-2.4,1.8-4.4,4.1-7.1,6.5c3.2,2.7,5.9,5,8.8,7.4c7.7,6.5,10.6,15.3,12.4,24.8c0.3,1.8,0,3.2-0.9,4.7
	c-2.1,3.8-3.8,7.7-6.2,11.2c-4.4,6.2-9.1,12.7-14.2,18.3c-7.1,7.7-9.4,16.5-8,26.5c1.8,12.1,4.1,24.2,7.1,36
	c2.1,8.6,4.4,17.1,3.8,25.7c-1.2,17.1-6.8,33.3-16.2,47.5c-7.4,11.2-18,19.5-30.1,25.1c-11.5,5.3-23.9,8.8-36.6,10.6
	c-12.7,1.8-25.1,2.7-38,2.7c-16.8-0.3-33.3-1.8-49.8-4.4c-22.4-3.2-44.5-7.4-66.9-10.9c-5.9-0.9-11.5-2.1-17.4-3.2
	c-2.4-0.6-3.8-0.3-5,2.4c-2.9,8-5.9,15.9-6.2,24.5c-0.3,11.2-1.5,22.1-3.5,33c-3.2,15.9-9.1,30.7-15.6,45.1
	c-0.6,0.6-1.2,0.9-1.8,1.2c-5.9-0.3-10.6-2.9-15.9-5c-8-3.2-16.5-5.6-24.5-8.6c-18.9-7.4-37.8-14.7-56.3-22.4
	c-16.5-7.4-33.3-14.2-49.5-22.4c-16.2-7.1-32.1-15-47.8-23.6c-0.6-0.3-1.2-0.6-1.5-0.9c-0.9-0.6-2.1-1.2-3.2-1.5
	c-0.6-0.3-1.2-0.3-1.8-0.6c-1.2-0.6-2.4-0.9-3.2-1.5c-12.4-7.7-26.2-13.3-38.3-21.2c-0.6-0.3-1.2-0.6-1.8-0.9
	c-1.8-0.9-3.2-1.8-5-2.7c-0.6-0.3-1.2-0.6-1.8-0.9c-0.9-0.9-2.1-1.5-3.2-2.1c-16.2-9.7-32.4-19.5-48.4-29.8
	c-16.8-10.9-33.3-22.1-49.8-33.6c-9.1-7.4-19.2-14.2-28.6-21.2c-0.9-0.6-2.1-1.5-2.9-2.4c-0.6-0.3-0.9-0.6-1.5-1.2
	c-0.6-0.3-0.9-0.6-1.2-1.2c-0.6-0.6-1.2-1.2-1.8-1.8c-0.6-0.6-1.2-1.2-1.8-1.5c-0.3-0.3-0.6-0.6-1.2-1.2s-1.2-0.9-1.8-1.5
	c-0.6-0.3-0.9-0.6-1.5-0.9c-0.6-0.3-0.9-0.6-1.5-0.9s-0.9-0.6-1.5-1.2c-7.7-6.5-15.6-12.7-23-19.5c-0.6-0.6-1.5-1.5-2.1-2.1
	s-1.5-1.2-2.4-1.8c-26.8-21.5-50.4-46.3-74.6-70.5c-12.7-14.5-25.7-28.3-38.3-42.8c-0.9-1.2-1.5-2.7-2.7-3.8
	c-0.9-0.9-1.8-1.8-2.7-2.7C35.7,295,28,287,21.3,278.2c-1.5-1.8-2.9-3.5-3.8-5.9c-0.3-2.1-0.3-4.1-2.9-4.7
	c-3.8-2.7-5.9-7.1-8.8-10.6c-0.9-1.5-2.1-3.2-3.2-4.4c-0.6-0.6-0.9-0.9-1.2-1.5c-10.6-15-21.2-30.1-30.7-46
	c-1.2-2.1-2.7-4.1-3.8-6.2c-0.6-0.9-1.2-1.8-1.8-2.9c-0.3-0.6-0.9-1.5-1.2-2.1c-0.3-0.6-0.6-0.9-0.9-1.5c-0.3-0.6-0.6-0.9-0.9-1.5
	c0-0.3-0.3-0.6-0.3-0.6c-0.3-0.6-0.6-0.9-0.9-1.5c-0.6-0.9-1.2-1.8-1.8-2.9c-0.3-0.6-0.6-0.9-1.2-1.5c-0.3-0.3-0.3-0.6-0.6-0.6
	c-0.3-0.6-0.9-0.9-1.2-1.5c-0.3-0.6-0.6-1.2-0.9-1.8c-6.2-11.2-13-21.8-18.6-33.3c-1.5-2.7-3.2-5.3-2.4-8.6c0.6-1.2,1.5-1.8,2.4-2.4
	c2.7-1.2,5.3-1.2,8.3-0.9c1.5,0.3,3.2,0.3,5,0.6c12.4,1.8,24.8,0.6,37.2,0.6c2.4,0,4.7-0.3,7.1,0c0.9,0,1.5,0.3,2.4,0.6
	c1.2,0.3,2.1,0.9,2.9,1.8c13,15.3,23.6,32.4,36,48.1c15,19.5,31,38,46.9,56.6c0.6,0.6,1.5,1.2,2.4,1.8c22.7,26,47.5,49.8,72.8,73.1
	c13.6,11.8,26.5,23.6,40.4,35.1c6.8,5.6,13.9,11.2,20.6,17.1c0.9,0.9,2.1,1.5,3.2,2.4c1.2,0.9,2.4,2.1,3.8,2.9
	c13,10.6,26.5,20.4,39.8,30.1c0.6,0.3,1.2,0.6,1.8,0.9c1.8,1.5,3.2,3.2,5.3,4.1c19.5,13.9,39.2,27.4,59.9,39.5
	c13.3,8.6,26.5,16.2,40.4,23.6c2.1,1.5,4.1,2.9,6.5,4.1c0.6,0.3,1.2,0.6,1.8,0.9c0.6,0.3,1.2,0.6,1.8,1.2c0.3,0.3,0.6,0.3,0.9,0.6
	c23,12.4,46.3,24.2,70.2,34.8c15.6,6.8,31.6,13.9,44.2,18c-39.2-21.8-79.3-49-117.7-78.7c-13-10-25.7-20.4-38-31
	c-0.9-0.6-1.5-1.2-2.4-1.8c-3.5-2.7-6.5-6.2-10-8.8c-17.7-15.6-35.1-32.1-51.3-49.3c-2.1-2.1-4.1-3.8-6.2-5.6
	c-12.7-14.2-26-27.7-37.5-43.1c-0.6-0.3-0.9-0.9-1.2-1.5c-1.5-1.8-2.7-3.5-3.8-5.3c-1.2-1.8-2.9-3.2-4.1-5c-0.9-1.8-2.1-2.9-3.5-4.1
	c-18.3-21.2-33.6-44.2-49-67.5c-3.5-5.3-6.8-10.6-10.3-15.9c-13.3-22.1-26.2-44.5-37.8-67.5c-2.1-4.1-5-8.8,2.4-11.2
	c47.8-0.6,95.6,0,143-0.3c15.3,0,30.7,0,45.7,0c2.1,0,4.4,0,6.5,0c7.4-0.9,15-0.9,22.4,0.3c0.9,0,1.5,0.3,2.1,0.6
	c6.2,5.3,10,12.4,14.5,18.9c31,44.2,66.1,84.6,103.8,123c7.1,7.1,15,13.3,22.7,20.4c0.6,0.3,0.9,0.9,1.5,1.2
	c0.3,0.3,0.3,0.3,0.6,0.6c0.3,0.3,0.9,0.9,1.2,1.2c0.3,0.3,0.3,0.3,0.6,0.6c0.3,0.3,0.9,0.9,1.2,1.2c0.3,0.3,0.3,0.3,0.6,0.6
	c0.3,0.3,0.9,0.9,1.2,1.2c0.3,0.3,0.3,0.3,0.6,0.6c0.3,0.3,0.6,0.9,1.2,1.2c0.3,0.3,0.3,0.3,0.6,0.6c0.9,0.6,1.8,1.2,2.4,1.5l0,0
	c-0.6-0.3-0.9-0.6-1.5-0.9c-0.9-0.6-1.5-1.2-2.1-2.1c-0.3-0.3-0.6-0.9-0.9-1.2c-0.3-0.3-0.3-0.3-0.6-0.6c-0.3-0.3-0.6-0.9-1.2-1.2
	c-0.3-0.3-0.3-0.3-0.6-0.6c-0.3-0.3-0.9-0.9-1.2-1.2c-0.3-0.3-0.3-0.3-0.6-0.6c-0.6-0.3-0.9-0.9-1.2-1.2c-0.3-0.3-0.6-0.3-0.6-0.6
	c-0.6-0.3-0.9-0.9-1.5-1.5c-15-17.1-27.7-35.7-40.1-54.6c-20.1-30.7-38.6-62.5-54-95.9c-1.5-3.5-4.4-7.1-0.3-10.9
	c4.7-1.8,9.4-1.5,14.2-0.9c1.5,0,3.2-0.3,4.7,0c10,0.9,20.1,0,30.4,0c2.7-0.6,5,0.3,7.7,0c16.8,0,33.6,0,50.4,0
	c2.7-0.3,5.3-0.6,7.7,0c0.9,0,1.8,0,2.7,0c7.7-0.9,15.6-0.9,23.3,0c14.2-1.8,28,0.6,42.2-0.6c16.8-1.5,33.6-2.7,50.4-4.7
	c2.7,0,5.3-1.5,8-1.5c1.5,0,2.7-0.6,4.1-1.2c5-1.8,10.3-2.4,15.3-4.1c6.5-1.8,13-3.5,19.5-5.3c11.2-3.8,21.8-9.1,33-13.6
	c0.6-0.3,1.2-0.6,1.8-0.9c0.9-0.6,1.8-0.9,2.7-1.2c8-3.8,15.3-8,23-12.4c1.5-1.2,3.2-2.1,5-2.9c10.6-7.1,21.5-13.9,31.6-21.8
	c1.2-1.2,2.4-2.1,3.5-3.2c4.7-3.8,9.4-7.4,13.9-11.5c18.9-18,36.9-36.9,50.7-59.3c2.1-2.1,3.2-6.5,7.7-3.8c1.8,3.2,1.8,6.5,0.9,9.7
	c-0.3,1.8-1.5,3.2-2.9,4.7c-2.4,2.9-2.9,6.5-1.5,10c1.8,3.8,5.3,3.5,8.6,2.7C853.9,16.5,855,16.5,855.9,17.4z"/>
<path class="st36" d="M966.2,319.8c-0.3,0-0.5,0.2-0.8,0.2c-3.4,1.5-5.3,1.4-6.8-0.8c-1.5-2.3-0.8-5.9,1.7-7.7
	c0.3-0.2,0.6-0.5,0.9-0.6c1.2-1.1,2.6-1.1,3.7-0.2c6.3,4.8,13.8,3.4,20.7,2.9c6-0.3,12.1-0.6,18.1-0.3c18.9,1.2,37.7,0.5,56.7,0.5
	c4,0,8-0.5,12.2-0.8c4.6-0.2,8.5,1.4,11.4,4.9c2.5,2.9,4.9,5.9,7.6,8.7c1.9,2,4.2,2.9,7,2.9c7.3,0,14.5,0,21.8,0
	c2.2,0,4.2,0.3,6,1.4v0.2c0.9,1.1,1.7,2.2,2.2,3.4c-3.2,0-6.5,0.2-9.6,0.2c-5.9-0.2-11.6,0.5-17.5,0.8c-7.3,0.5-12.5-2.5-16.7-8.3
	c-1.7-2.5-3.9-4.5-5.9-6.6c-1.9-2-4.2-2.6-7-2.6c-26,0.2-51.9,0-77.9,0c-7.1,0-14.4-0.2-21.5-0.2C970.5,317.5,968.1,318,966.2,319.8
	z"/>
<path class="st37" d="M1257.3,331.6c0,0.8,0,1.5,0.2,2.3c-11.4,1.2-22.9,0.5-34.2,0.6c-0.6-1.1-0.9-2.3-0.6-3.6
	C1234.1,331.1,1245.7,330.4,1257.3,331.6z"/>
<path class="st13" d="M1245.4,317.7c2.5,0,5.1-0.6,7.4,0.6C1250.3,318.3,1247.8,318.8,1245.4,317.7z"/>
<path class="st17" d="M1126.6,331c-9.7,0-19.5,0-29.2,0c-2.3,0-4.3-0.8-5.9-2.6c-2.2-2.5-4.5-4.8-6.5-7.6c-3.4-4.6-7.7-7.4-13.9-6.3
	c-1.5,0.3-3.2,0.2-4.8,0.3c-8.5,0.9-17,0.5-25.5,0.5c-16.1,0.2-32-0.3-48.1-0.5c-6,0-12.1,0.8-18.1,0.6c-3.4,0-6.6-0.6-9.3-3.1
	c-1.1-1.1-2.5-1.5-4-1.4c-0.2-1.9-0.3-3.9-0.5-5.7c-0.5-2.2,0.6-3.2,2.3-4c5.4-1.2,10.8-0.8,16.2-0.8c40,0.2,80.1,0,120.1,0
	c2.5,0,4.9-0.2,7.1,1.4c0.3,0,0.6,0.2,0.9,0.2c0.6,2.6,2.3,4.6,3.9,6.6C1116.6,316.1,1121.5,323.6,1126.6,331z"/>
<path class="st16" d="M1195,268.7c2,3.1,4,6.2,6,9.1c0.6,1.1,1.4,2,1.4,3.2c-3.1,0-6.2,0.2-9.3,0.2c-20.1,0-40.2,0-60.3-0.3
	c-5.3-0.2-9.3,1.4-12.7,5.4c-2.2,2.6-4.3,4.9-6.5,7.6c-2.5,2.9-5.4,4.6-9.3,4.3c-0.2,0-0.3-0.2-0.6-0.2c-3.1-3.9-7.4-7.1-6.8-13
	c2.3-10.4,12.8-20.9,24.6-18.9c9.1,1.5,18.5,0.6,27.7,0.8c13,0.2,26,0,38.8,0c2.3,0,4.6,0.2,6.8,1.4L1195,268.7z"/>
<path class="st38" d="M1106.7,301.9c-5.4,0.3-10.8-0.2-16.2-0.2c-35.2,0-70.3,0-105.6,0c-7.3,0-14.5,0.2-21.8,0.3
	c-0.3-3.6,0.6-4.9,3.7-5.4c10.7,0.3,21.2,0.2,31.8,0.2c32.9,0,65.8,0,98.9,0c2.5,0,4.9,0,7.1,1.5v0.2
	C1105.3,299.6,1106.2,300.7,1106.7,301.9z"/>
<path class="st16" d="M1083.7,264.2c2.3-3.9,5.7-6.8,8.8-9.9c2-2,4.6-2.6,7.4-2.6c4.9-0.2,9.9,0.8,14.8,0.6c21-0.2,41.9,0,62.9,0
	c1.5,0,3.2,0.2,4.8,0.2c2.2,3.7,5.7,6.3,7.7,10c0.3,0.8,1.1,1.4,1.1,2.3c-1.7,2-4,1.4-6.2,1.4c-21.6,0-43.3,0.5-64.8-0.2
	c-8-0.3-13.8,2.5-18.4,8.7c-1.9,2.5-4.2,4.6-7.6,4.6c-0.9,0-2.2-0.2-2.8-0.8C1087.5,274.6,1084.1,270.1,1083.7,264.2z"/>
<path class="st39" d="M1093.4,278.3c2.6,0.2,4.5-1.1,6-2.9c2.5-3.1,5.3-5.9,8.2-8.5c1.7-1.5,3.4-2,5.7-2c17.8,0,35.6,0,53.3,0
	c8.2,0,16.4,0,24.4,0c0.9,0,2,0.2,2.9,0.2c-0.8,0.6-1.5,1.2-0.3,2.2c0.5,0.3,0.8,0.9,1.1,1.4c-22.4,0-44.8,0-67.4,0
	c-3.2,0-6.6-0.6-9.9-0.6c-5.6,0-10,2-13,7c-0.2,0.2-0.3,0.5-0.3,0.6c-1.2,2-3.7,2.8-4.6,4.6c-0.9,1.9-0.6,4.3-2,6.2
	c-0.3,0.3-0.6,0.3-0.9,0.3c-2.6-1.7-4.6-4-4.6-7.4C1092.3,278.7,1093,278.6,1093.4,278.3z"/>
<path class="st17" d="M1092.6,202.5c-0.2,4.5,1.2,8.8,0.8,13.3c-1.5,0.2-3.1-0.3-4.5,0.6c-1.1,1.5-2.8,1.5-4.3,1.5
	c-4.8-0.2-9-1.7-12.2-5.3c-1.9-2-3.7-4-5.3-6.2c-3.6-4.9-8.3-7-14.2-6.2c-7.6,0.9-15,0.6-22.6,0.6c-11.1,0.2-22.3,0-33.4,0
	c-2,0-4.3,0.3-5.9-1.5c0-4.3,0-8.8,0-13.1c1.2-1.4,3.1-1.5,4.8-1.5c12.1,0.3,24-0.5,36-0.5c3.9,0,7.4,0.6,10.5,2.8
	c1.5,1.1,3.1,1.5,4.6-0.2c1.2-1.4,1.4-2.9,0.5-4.5c-1.4-1.9-3.4-1.7-4.9-0.5c-3.1,2.2-6.3,2.3-9.9,2.3c-11.9-0.2-23.7,0.5-35.6,0.3
	c-2,0-4.3,0.3-5.9-1.4c0-5.4,0-10.8,0-16.2c4,3.9,9,4,13.9,3.4c3.6-0.5,7.1-0.5,10.7-0.5c11.3,0,22.4,0,33.7-0.2
	c2.8,0,5.7-0.3,8.5,0c1.5,0.2,2.8,0.6,4,1.7c4,3.4,7.4,7.6,11.1,11.3c3.2,3.4,6.3,6.8,9.6,10.2c2.6,2.9,5.1,6,8.5,8
	C1091.6,201.6,1092,202.1,1092.6,202.5z"/>
<path class="st40" d="M991.1,199.4c18.5,0,37.1,0,55.6,0c2.8,0,5.4-0.3,8.2-0.5c5.4-0.5,9.6,1.7,12.8,6c1.5,2.2,3.4,4.2,5.3,6.3
	c3.1,3.9,7.3,5.4,12.1,5.4c1.4,0,2.8,0,4,0c0.5,0,0.9,0.2,1.4,0.2c2.5,0.2,2.5,0.2,1.7,2.8c-3.9,0.5-7.6,0.5-11.4,0.2
	c-3.1-0.2-5.9-1.1-8-3.9c-2.2-2.8-4.6-5.4-7-8.2c-3.1-3.6-6.8-5.4-11.7-5.1c-20.4,1.4-41,0.5-61.4,0.6c-0.5,0-0.9,0-1.5,0.2
	C990.9,202.1,990.9,200.8,991.1,199.4z"/>
<path class="st41" d="M979,268.5c0.3-1.2,0.5-2.6,1.2-3.7c0.8,0.8,1.9,0.6,2.8,0.5c5.7-0.8,11.6-0.6,17.3-1.1
	c3.4-0.3,6.6,0.2,9.9,0.6c3.6,0.3,6,2.6,8.2,5.3c2.2,2.6,4.2,5.6,6.6,8c2.5,2.6,5.4,3.7,9,3.7c2.5,0,4.9-0.2,7.4-0.5
	c3.6-0.5,7.1,0,10.7,0.5c6,0.8,10.4-1.9,14.4-5.9c4.8-4.9,9.6-9.9,14.5-14.8c0.3-0.3,0.8-0.5,1.2-0.8c0.2,1.2,0.9,2.3,0.8,3.7
	c-0.3,2.3-2,4-3.6,5.6c-4.6,4.5-9.3,9.1-14.2,13.4c-2,1.7-4.2,3.1-7,3.1c-7.7-0.3-15.5,0.9-23.3,0.9c-6.5-0.2-11.7-2.3-15.6-7.6
	c-0.9-1.2-2-2.5-2.9-3.7c-3.9-5.7-9.4-7.1-15.9-6.2c-6,0.8-12.1,0.3-18.1,0.3C981.2,269.9,980,269.6,979,268.5z"/>
<path class="st33" d="M983.8,252.4c0.5-1.2,0.8-2.5,1.2-3.7c4.2,0,8.3,0.2,12.5,0.2c11.1-0.2,22.3,0.3,33.2,0.6
	c4,0.2,8,0.2,11.4-3.1c1.4-1.5,3.7-1.1,5.6,0c2.2,1.4,2.2,3.6,1.7,5.6c-0.3,2-1.9,3.1-3.7,3.7c-1.2,0.3-2.2-0.3-3.1-0.9
	c-3.2-2.5-6.8-3.2-10.8-3.1C1015.8,252.8,999.7,252,983.8,252.4z"/>
<path class="st33" d="M987.2,236.7c-0.2-1.4,0.5-2.5,0.8-3.7c4,0,7.9,0,11.9,0.2c3.4,0.2,6.5-0.8,9.4-2.6c2.3-1.5,3.9-1.4,5.7,0.2
	c1.9,1.7,2.3,4,1.2,6c-0.9,1.7-3.7,2.6-5.9,1.9c-0.6-0.3-1.4-0.5-2-1.1c-2.2-2.2-4.8-2.5-7.6-2.2c-3.7,0.3-7.4,0.6-11.1,0.6
	C988.8,235.9,988,236.2,987.2,236.7z"/>
<path class="st17" d="M979,268.5c6.2,0,12.4,0,18.5-0.2c3.4-0.2,6.8-0.6,10.4-0.2c3.1,0.5,5.6,1.9,7.6,4.2c2,2.5,4.2,4.9,6,7.4
	c3.1,3.9,7,5.7,11.9,5.9c4.5,0.2,8.8,0.2,13.3-0.6c3.7-0.6,7.6-0.6,11.4-0.3c2.2,0.2,3.9-0.5,5.4-1.9c3.6-3.4,7.3-6.6,10.7-10
	c2.9-2.9,5.7-6.2,8.8-8.8c0.2,0,0.5,0,0.6,0c1.7,3.2,3.4,6.5,5.3,9.6c1.1,1.9,1.7,4.2,4.5,4.5c-0.3,0.3-0.6,0.5-0.9,0.8
	c-0.5,0.5-0.8,1.2-1.2,1.7c-0.9,1.2-1.2,2.6-0.5,4c0.8,1.4,2.3,1.7,3.9,1.5c0.9-0.2,1.7-0.2,2.6-0.2c0.2,0,0.5,0,0.6,0
	c0,1.5,0.6,2.8,1.4,4c1.9,2.6,3.6,5.3,5.3,7.9c-15,0-29.8-0.2-44.8-0.2c-29.4,0-58.7-0.3-88.1,0.2c-1.5,0-2.9,0-4.5,0
	c-0.9,0-1.2-0.5-1.4-1.4c4.3-7.3,8-14.7,11-22.6C977.3,272.4,978.3,270.5,979,268.5z"/>
<path class="st42" d="M990.9,183.2c9,0,17.9,0,27.1,0.2c5.6,0,11.1,0,16.7,0.2c2.2,0,4.2-0.5,5.9-2c0.3-0.3,0.8-0.6,1.2-0.9
	c2.8-1.9,5.7-1.4,7.1,0.8c1.5,2.2,0.8,6-1.5,7.7c-1.5,1.2-3.4,1.4-5.1-0.2c-2.9-2.8-6.5-3.4-10.2-3.2c-13.8,0.2-27.4,0.5-41,0.8
	C990.9,185.4,990.9,184.3,990.9,183.2z"/>
<path class="st38" d="M1097.1,286.5c-1.7,2.2-3.9,1.9-5.9,0.9c-1.9-0.8-2.6-2.5-2.3-4.5c0.3-2.2,1.4-3.6,3.7-3.7
	C1093.4,282,1095.4,284.1,1097.1,286.5z"/>
</svg>
