<?xml version="1.0" encoding="utf-8"?>
<!-- Generator: Adobe Illustrator 21.0.2, SVG Export Plug-In . SVG Version: 6.00 Build 0)  -->
<svg version="1.1" id="Layer_1" xmlns="http://www.w3.org/2000/svg" xmlns:xlink="http://www.w3.org/1999/xlink" x="0px" y="0px"
	 viewBox="0 0 1280 1024" style="enable-background:new 0 0 1280 1024;" xml:space="preserve">
<style type="text/css">
	.st0{fill:#FFFFFF;}
	.st1{fill:none;stroke:#FFFFFF;stroke-miterlimit:10;}
</style>
<path class="st0" d="M-28.5,955.5C576,963,645,715,1306.5,640c122.5,3,0,539,0,539H-27.4C-27.4,1179-633,947.9-28.5,955.5z"/>
<g>
	<path class="st1" d="M130,984.5h376.3c14.6,0,28.6-5.9,38.8-16.3c20.1-20.6,39.2-57.2-30.5-89.1
		c-0.8-145.4-121.7-166.7-185.5-103.8c-85-111.1-199.3,9.8-155.2,76.8C120.8,835.8,75,866.9,75,909.3s24.5,75.2,53.5,75.2
		C129,984.5,129.5,984.5,130,984.5z"/>
	<path class="st1" d="M141.5,994h376.3c14.6,0,28.6-5.9,38.8-16.3c20.1-20.6,15.7-54.3-54.1-86.2c-0.8-145.4-109.3-160.9-173-98
		c-85-111.1-185.1,6-141,73c-53.1-16.3-102,9.9-102,52.3S111.1,994,140,994C140.5,994,141,994,141.5,994z"/>
	<path class="st1" d="M157.5,1008.5h376.3c14.6,0,28.6-5.9,38.8-16.3c20.1-20.6-12.3-59.8-82.1-91.7c-0.8-145.4-99.3-150.9-163-88
		c-85-111.1-167.1,1.5-123,68.5c-53.1-16.3-102,9.9-102,52.3s24.5,75.2,53.5,75.2C156.5,1008.5,157,1008.5,157.5,1008.5z"/>
</g>
<g>
	<path class="st1" d="M673.2,839.9h686.2c26.6,0,52.2-10.7,70.8-29.8c36.6-37.6,71.6-104.4-55.5-162.4
		c-1.5-265.2-218.9-305.9-335.1-191.2c-154.9-202.6-366.6,19.9-286.2,142C656.5,568.7,573,625.4,573,702.8s44.7,137.1,97.5,137.1
		C671.4,839.9,672.3,839.9,673.2,839.9z"/>
	<path class="st1" d="M694.1,857.2h686.2c26.6,0,52.2-10.7,70.8-29.8c36.6-37.6,34.5-109.9-92.6-168c-1.5-265.2-205.8-294.7-322-180
		c-154.9-202.6-342.5,16.8-262,139C677.7,588.7,594,642.7,594,720.2s44.7,137.1,97.5,137.1C692.4,857.2,693.3,857.2,694.1,857.2z"/>
	<path class="st1" d="M723.3,883.7h686.2c26.6,0,52.2-10.7,70.8-29.8c36.6-37.6-12.7-122.4-139.8-180.4
		c-1.5-265.2-186.8-278.7-303-164c-154.9-202.6-319.5,9.8-239,132c-121-35-180,26.5-180,104s49.4,138.2,102.2,138.2
		C721.6,883.7,722.4,883.7,723.3,883.7z"/>
</g>
</svg>
