<?xml version="1.0" encoding="utf-8"?>
<!-- Generator: Adobe Illustrator 21.0.2, SVG Export Plug-In . SVG Version: 6.00 Build 0)  -->
<svg version="1.1" id="Layer_1" xmlns="http://www.w3.org/2000/svg" xmlns:xlink="http://www.w3.org/1999/xlink" x="0px" y="0px"
	 viewBox="0 0 231.6 223.6" style="enable-background:new 0 0 231.6 223.6;" xml:space="preserve">
<style type="text/css">
	.st0{fill:#1F2232;}
	.st1{fill:#C60077;}
</style>
<g>
	<g id="L7CxwF_1_">
		<g>
			<g>
				<path class="st0" d="M146.6,192.7c-7,6.4-14,12.7-20.9,19c-4.3,2.7-3.4-2.7-2.5-6.5c0,0.2,2.1-6,3.7-10.7
					c5.9-17,11.6-34,16.5-51.3c1.2-4.2-0.1-9-0.6-14c-0.1-0.8,0.5-1.4,1.2-1.4c12.4-0.2,25.8,1.3,38.6-2.6c0.7-0.2,1.1-0.9,0.8-1.6
					c-1.2-3.7-2.8-7.2-3-10.8c-0.3-3.6,0.7-7.3,1.4-11c0.1-0.7-0.3-1.3-1-1.4c-18.2-4.4-69.3,7.7-80.8,19.6
					c-0.7,0.7-0.4,1.8,0.5,2.1c1.8,0.5,4.5,1.4,7,2.2c1.3,0.4,1.1,2.3-0.2,2.5c-24.3,3.7-47.5,7.1-70.8,10.6
					c17.5-5.5,36.4-6.1,53.2-14.2c-0.1-1.9-0.1-2.1-0.2-4.1c-1.3-0.5-2.6-0.9-4-1c-14.8-1.1-29.5-2.1-44.3-3
					c-5.3-0.3-10.6-0.3-15.9-0.6c9-0.6,18-1.2,26.9-1.7c19.5-1.1,38.9-2,58.4-3.1c9.2-0.5,17.4-3.4,22.5-11.8
					c4.7-7.6,5.8-15.9,1-23.7c-8.2-13.3-17-26.2-25.5-39.4c-4.5-7-8.7-14.2-13-21.3c-0.6-1.1-1.1-2.3-1.3-3.8
					c-0.1-1,0.9-1.7,1.7-1.3c2.3,0.9,4.6,1.8,6.9,3c21.5,10.9,41.8,23.6,59.3,40.2c5.5,5.2,10.4,11.2,15.1,17.3
					c5.3,6.9,6.8,15.1,6.4,23.6c-0.2,3.7,1.1,6.3,5.1,6.4c5.4,0.2,13,0,20.2,7.3c0.5,0.5,0.5,1.3,0.1,1.8
					c-5.9,6.4-7.6,15.3-19.3,16.5c-0.5,0.1-1,0.4-1.1,1c-0.6,2.5-1.2,5.6-2.3,8.5c-7.6,19.2-19.6,35.5-33.2,50.7"/>
			</g>
		</g>
	</g>
	<path class="st1" d="M188.9,124.5c0,0-8.6-8.5-4-15.8c4.5-7.3,24-0.6,24-0.6s-2.2,3.8-6.2,9.4C197.9,124.4,188.9,124.5,188.9,124.5
		z"/>
</g>
</svg>
