<?xml version="1.0" encoding="utf-8"?>
<!-- Generator: Adobe Illustrator 21.0.2, SVG Export Plug-In . SVG Version: 6.00 Build 0)  -->
<svg version="1.1" id="Layer_1" xmlns="http://www.w3.org/2000/svg" xmlns:xlink="http://www.w3.org/1999/xlink" x="0px" y="0px"
	 viewBox="0 0 1329 747" style="enable-background:new 0 0 1329 747;" xml:space="preserve">
<style type="text/css">
	.st0{fill:#FBCC00;}
	.st1{fill:#FC5800;}
	.st2{fill:#1B1464;}
	.st3{fill:none;stroke:#F7931E;stroke-width:200;stroke-miterlimit:10;}
	.st4{fill:#606060;}
	.st5{fill:none;}
	.st6{opacity:0.8;}
	.st7{fill:#FFFFFF;}
	.st8{fill:#FFFFFF;stroke:#F15A24;stroke-width:30;stroke-miterlimit:10;}
</style>
<polyline class="st0" points="816.2,-13 816.2,143 906.9,176 947,268 933.3,378 902.7,416 802.4,431 762.4,427 698,493 708.5,550 
	961.8,574 1017.7,599 1044,636 1039.8,681 1002.9,737 872.1,766 790.8,781 790.8,885 1331,885 1334,-15 849,-18 "/>
<rect y="0" class="st1" width="490" height="747"/>
<circle class="st2" cx="321" cy="525" r="246"/>
<line class="st3" x1="473" y1="0" x2="473" y2="747"/>
<g>
	<path class="st4" d="M681.7,375.1c-16.5-25.1-24.8-53.3-24.8-84.7c0-38.2,15.2-74.4,45.6-108.6s73.4-51.4,129-51.4
		c23.9,0,50.2,5.6,79,16.7s56.5,16.7,83,16.7c6.9,0,17.3-0.2,31.2-0.7c13.9-0.5,24-0.7,30.2-0.7h5.9v39.7h-85.1
		c5.9,13.7,10.5,25.7,13.7,35.8c5.6,19,8.3,36.9,8.3,53.9c0,37.3-15.5,71.5-46.4,102.7s-72.5,46.8-124.9,46.8
		c-8.2,0-22.9-1.5-44.2-4.5c-9.5,0-22.1,8-37.9,24.1c-15.8,16.1-23.7,29.2-23.7,39.3c0,10.5,11.5,18.2,34.4,23.1
		c15.1,3.3,31.8,4.9,50.1,4.9c84.1,0,141.2,4.7,171.4,14.2c49.4,15.3,74.2,48.2,74.2,98.7c0,51.5-28.9,92.5-86.6,123.2
		c-57.7,30.6-116,45.9-174.8,45.9c-53.6,0-96.1-10.8-127.5-32.5c-31.4-21.7-47.1-44.3-47.1-68.1c0-11.7,4.1-23.2,12.5-34.4
		c8.3-11.2,24.7-27.9,49.1-50l32.2-28.8l5.9-5.9c-14.8-5.9-26-11.6-33.4-17.2c-12.9-10.2-19.3-21.8-19.3-34.9
		c0-12.1,5.6-25.5,16.9-40.1c11.3-14.6,35.4-38.3,72.3-71.1C721.3,417.7,698.2,400.2,681.7,375.1z M733.2,740.7
		c30.9,10.5,66.3,15.7,106.2,15.7c54.3,0,98.4-9.4,132.4-28.3c34-18.9,51-42.1,51-69.6c0-22-13.8-36.6-41.3-43.8
		c-17-4.3-49.3-6.7-96.8-7.4c-12.1-0.3-24.9-0.7-38.3-1.2c-13.4-0.5-25.7-1.1-36.8-1.7c-7.2-0.3-18.8-1.7-34.9-3.9
		c-16.1-2.3-28-4.3-35.9-5.9c-3.9,0-13.5,10.3-28.7,31c-15.5,21-23.3,40.3-23.3,58C686.9,711.2,702.3,730.2,733.2,740.7z
		 M889.4,402.8c19.7-15.6,29.5-42.8,29.5-81.6c0-30.9-8-65.8-23.9-104.6c-15.9-38.8-42.4-58.2-79.4-58.2
		c-32.1,0-54.3,15.2-66.4,45.5c-6.2,16-9.3,35.7-9.3,59.1c0,39.8,9.7,75.4,29,107s44.4,47.4,75.2,47.4
		C862.2,417.5,877.3,412.6,889.4,402.8z"/>
</g>
<rect x="1199.4" y="525.1" class="st5" width="397.6" height="365.9"/>
<g class="st6">
	<path class="st7" d="M1112.3,604.1h56.6v24.1c8.3-15.8,24.4-28.2,49.7-28.2c28.5,0,48.3,18.1,48.3,55.5v98.9h-56.6v-86.2
		c0-15.2-5.5-23-19-23c-14.1,0-22.4,8.3-22.4,26.2v83.1h-56.6V604.1z"/>
</g>
<g>
	<line class="st8" x1="373" y1="442.5" x2="481.6" y2="442.5"/>
	<line class="st8" x1="373" y1="496.5" x2="482" y2="497"/>
	<line class="st8" x1="373" y1="550.5" x2="482" y2="551"/>
</g>
</svg>
